# xmcd
#
# Track frame offsets:
#	150
#	16957
#	31928
#	43685
#	57404
#	74105
#	89078
#	105906
#	120706
#	132363
#	145994
#	162675
#
# Disc length: 2370
#
# Revision: 1
# Processed by: cddbd v1.5.2PL0 Copyright (c) Steve Scherf et al.
# Submitted via: kJams Pro (development) 1.0patch45.25
#
DISCID=b209400c
DTITLE=K.D. Lang - CB 20226
DYEAR=1990
DGENRE=Country
TTITLE0=K.D. Lang - Vocals - Constant Craving
TTITLE1=K.D. Lang - Vocals - Three Days
TTITLE2=K.D. Lang - Vocals - Big Big Love
TTITLE3=K.D. Lang - Vocals - Down To My Last Cigarette
TTITLE4=K.D. Lang - Vocals - Lock Stock And Teardrop
TTITLE5=K.D. Lang - Vocals - Trail Of Broken Hearts
TTITLE6=K.D. Lang - Constant Craving
TTITLE7=K.D. Lang - Three Days
TTITLE8=K.D. Lang - Big Big Love
TTITLE9=K.D. Lang - Down To My Last Cigarette
TTITLE10=K.D. Lang - Lock Stock And Teardrop
TTITLE11=K.D. Lang - Trail Of Broken Hearts
EXTD=
EXTT0=
EXTT1=
EXTT2=
EXTT3=
EXTT4=
EXTT5=
EXTT6=
EXTT7=
EXTT8=
EXTT9=
EXTT10=
EXTT11=
PLAYORDER=
